<?xml version="1.0" standalone="no"?>
<!DOCTYPE svg PUBLIC "-//W3C//DTD SVG 1.1//EN" "http://www.w3.org/Graphics/SVG/1.1/DTD/svg11.dtd">

<svg width="636.0" height="342.0" viewBox="0 0 636.0 342.0" version="1.1" xmlns="http://www.w3.org/2000/svg" xmlns:xlink="http://www.w3.org/1999/xlink">
<!-- automatically generated by aafigure --><line x1="181.5" y1="118.5" x2="517.5" y2="118.5" stroke="#000000" stroke-width="2.0" />
<line x1="181.5" y1="118.5" x2="181.5" y2="160.5" stroke="#000000" stroke-width="2.0" />
<line x1="517.5" y1="118.5" x2="517.5" y2="160.5" stroke="#000000" stroke-width="2.0" />
<line x1="181.5" y1="160.5" x2="517.5" y2="160.5" stroke="#000000" stroke-width="2.0" />
<g>
    <line x1="202.5" y1="213.0" x2="197.25" y2="197.25" stroke="#000000" stroke-width="2.0" />
    <line x1="202.5" y1="213.0" x2="207.75" y2="197.25" stroke="#000000" stroke-width="2.0" />
    <line x1="202.5" y1="171.0" x2="202.5" y2="213.0" stroke="#000000" stroke-width="2.0" />
</g>
<line x1="328.5" y1="171.0" x2="328.5" y2="339.0" stroke="#000000" stroke-width="2.0" />
<g>
    <line x1="412.5" y1="213.0" x2="407.25" y2="197.25" stroke="#000000" stroke-width="2.0" />
    <line x1="412.5" y1="213.0" x2="417.75" y2="197.25" stroke="#000000" stroke-width="2.0" />
    <line x1="412.5" y1="171.0" x2="412.5" y2="213.0" stroke="#000000" stroke-width="2.0" />
</g>
<g>
    <line x1="202.5" y1="276.0" x2="197.25" y2="260.25" stroke="#000000" stroke-width="2.0" />
    <line x1="202.5" y1="276.0" x2="207.75" y2="260.25" stroke="#000000" stroke-width="2.0" />
    <line x1="202.5" y1="234.0" x2="202.5" y2="276.0" stroke="#000000" stroke-width="2.0" />
</g>
<g>
    <line x1="412.5" y1="276.0" x2="407.25" y2="260.25" stroke="#000000" stroke-width="2.0" />
    <line x1="412.5" y1="276.0" x2="417.75" y2="260.25" stroke="#000000" stroke-width="2.0" />
    <line x1="412.5" y1="234.0" x2="412.5" y2="276.0" stroke="#000000" stroke-width="2.0" />
</g>
<line x1="13.5" y1="286.5" x2="307.5" y2="286.5" stroke="#000000" stroke-width="2.0" />
<line x1="349.5" y1="286.5" x2="622.5" y2="286.5" stroke="#000000" stroke-width="2.0" />
<line x1="13.5" y1="286.5" x2="13.5" y2="328.5" stroke="#000000" stroke-width="2.0" />
<line x1="307.5" y1="286.5" x2="307.5" y2="328.5" stroke="#000000" stroke-width="2.0" />
<line x1="349.5" y1="286.5" x2="349.5" y2="328.5" stroke="#000000" stroke-width="2.0" />
<line x1="622.5" y1="286.5" x2="622.5" y2="328.5" stroke="#000000" stroke-width="2.0" />
<line x1="13.5" y1="328.5" x2="307.5" y2="328.5" stroke="#000000" stroke-width="2.0" />
<line x1="349.5" y1="328.5" x2="622.5" y2="328.5" stroke="#000000" stroke-width="2.0" />
<text x="24.0" y="20.849999999999998" font-family="sans-serif" font-size="21.0" fill="#000000" >
  :aspect: 60
</text>
<text x="24.0" y="41.85" font-family="sans-serif" font-size="21.0" fill="#000000" >
  :scale: 120
</text>
<text x="24.0" y="62.85" font-family="sans-serif" font-size="21.0" fill="#000000" >
  :proportional:
</text>
<text x="24.0" y="83.85000000000001" font-family="sans-serif" font-size="21.0" fill="#000000" >
  :textual:
</text>
<text x="192.0" y="146.85" font-family="sans-serif" font-size="21.0" fill="#000000" >
  Observation (s)
</text>
<text x="192.0" y="230.85" font-family="sans-serif" font-size="21.0" fill="#000000" >
  actor
</text>
<text x="402.0" y="230.85" font-family="sans-serif" font-size="21.0" fill="#000000" >
  critic
</text>
<text x="24.0" y="314.84999999999997" font-family="sans-serif" font-size="21.0" fill="#000000" >
  Action (a(s))
</text>
<text x="360.0" y="314.84999999999997" font-family="sans-serif" font-size="21.0" fill="#000000" >
  Value (V(s))
</text>
</svg>
