<?xml version="1.0" standalone="no"?>
<!DOCTYPE svg PUBLIC "-//W3C//DTD SVG 1.1//EN" "http://www.w3.org/Graphics/SVG/1.1/DTD/svg11.dtd">

<svg width="594.0" height="1350.0" viewBox="0 0 594.0 1350.0" version="1.1" xmlns="http://www.w3.org/2000/svg" xmlns:xlink="http://www.w3.org/1999/xlink">
<!-- automatically generated by aafigure --><g>
    <line x1="139.5" y1="45.0" x2="139.5" y2="66.0" stroke="#000000" stroke-width="2.0" />
    <line x1="129.0" y1="55.5" x2="150.0" y2="55.5" stroke="#000000" stroke-width="2.0" />
    <line x1="160.5" y1="45.0" x2="160.5" y2="66.0" stroke="#000000" stroke-width="2.0" />
    <line x1="150.0" y1="55.5" x2="171.0" y2="55.5" stroke="#000000" stroke-width="2.0" />
</g>
<g>
    <line x1="223.5" y1="66.0" x2="223.5" y2="87.0" stroke="#000000" stroke-width="2.0" />
    <line x1="213.0" y1="76.5" x2="234.0" y2="76.5" stroke="#000000" stroke-width="2.0" />
    <line x1="244.5" y1="66.0" x2="244.5" y2="87.0" stroke="#000000" stroke-width="2.0" />
    <line x1="234.0" y1="76.5" x2="255.0" y2="76.5" stroke="#000000" stroke-width="2.0" />
</g>
<g>
    <line x1="277.75" y1="108.0" x2="277.75" y2="129.0" stroke="#000000" stroke-width="2.0" />
    <line x1="284.75" y1="108.0" x2="284.75" y2="129.0" stroke="#000000" stroke-width="2.0" />
    <line x1="291.75" y1="108.0" x2="291.75" y2="129.0" stroke="#000000" stroke-width="2.0" />
    <line x1="276.0" y1="109.75" x2="297.0" y2="109.75" stroke="#000000" stroke-width="2.0" />
    <line x1="276.0" y1="116.75" x2="297.0" y2="116.75" stroke="#000000" stroke-width="2.0" />
    <line x1="276.0" y1="123.75" x2="297.0" y2="123.75" stroke="#000000" stroke-width="2.0" />
    <line x1="277.75" y1="129.0" x2="277.75" y2="150.0" stroke="#000000" stroke-width="2.0" />
    <line x1="284.75" y1="129.0" x2="284.75" y2="150.0" stroke="#000000" stroke-width="2.0" />
    <line x1="291.75" y1="129.0" x2="291.75" y2="150.0" stroke="#000000" stroke-width="2.0" />
    <line x1="276.0" y1="130.75" x2="297.0" y2="130.75" stroke="#000000" stroke-width="2.0" />
    <line x1="276.0" y1="137.75" x2="297.0" y2="137.75" stroke="#000000" stroke-width="2.0" />
    <line x1="276.0" y1="144.75" x2="297.0" y2="144.75" stroke="#000000" stroke-width="2.0" />
</g>
<line x1="286.5" y1="129.0" x2="328.5" y2="129.0" stroke="#000000" stroke-width="2.0" />
<line x1="286.5" y1="192.0" x2="328.5" y2="192.0" stroke="#000000" stroke-width="2.0" />
<g>
    <line x1="360.0" y1="171.0" x2="381.0" y2="192.0" stroke="#000000" stroke-width="2.0" />
    <line x1="381.0" y1="171.0" x2="381.0" y2="171.0" stroke="#000000" stroke-width="2.0" />
    <line x1="360.0" y1="181.5" x2="370.5" y2="192.0" stroke="#000000" stroke-width="2.0" />
    <line x1="370.5" y1="171.0" x2="381.0" y2="181.5" stroke="#000000" stroke-width="2.0" />
    <line x1="360.0" y1="171.0" x2="360.0" y2="171.0" stroke="#000000" stroke-width="2.0" />
    <line x1="360.0" y1="192.0" x2="381.0" y2="171.0" stroke="#000000" stroke-width="2.0" />
    <line x1="360.0" y1="181.5" x2="370.5" y2="171.0" stroke="#000000" stroke-width="2.0" />
    <line x1="370.5" y1="192.0" x2="381.0" y2="181.5" stroke="#000000" stroke-width="2.0" />
    <line x1="381.0" y1="171.0" x2="402.0" y2="192.0" stroke="#000000" stroke-width="2.0" />
    <line x1="402.0" y1="171.0" x2="402.0" y2="171.0" stroke="#000000" stroke-width="2.0" />
    <line x1="381.0" y1="181.5" x2="391.5" y2="192.0" stroke="#000000" stroke-width="2.0" />
    <line x1="391.5" y1="171.0" x2="402.0" y2="181.5" stroke="#000000" stroke-width="2.0" />
    <line x1="381.0" y1="171.0" x2="381.0" y2="171.0" stroke="#000000" stroke-width="2.0" />
    <line x1="381.0" y1="192.0" x2="402.0" y2="171.0" stroke="#000000" stroke-width="2.0" />
    <line x1="381.0" y1="181.5" x2="391.5" y2="171.0" stroke="#000000" stroke-width="2.0" />
    <line x1="391.5" y1="192.0" x2="402.0" y2="181.5" stroke="#000000" stroke-width="2.0" />
</g>
<g>
    <line x1="318.0" y1="192.0" x2="339.0" y2="213.0" stroke="#000000" stroke-width="2.0" />
    <line x1="339.0" y1="192.0" x2="339.0" y2="192.0" stroke="#000000" stroke-width="2.0" />
    <line x1="318.0" y1="213.0" x2="339.0" y2="234.0" stroke="#000000" stroke-width="2.0" />
    <line x1="339.0" y1="213.0" x2="339.0" y2="213.0" stroke="#000000" stroke-width="2.0" />
</g>
<line x1="349.5" y1="213.0" x2="391.5" y2="213.0" stroke="#000000" stroke-width="2.0" />
<g>
    <line x1="423.0" y1="192.0" x2="444.0" y2="213.0" stroke="#000000" stroke-width="2.0" />
    <line x1="444.0" y1="192.0" x2="444.0" y2="192.0" stroke="#000000" stroke-width="2.0" />
    <line x1="423.0" y1="202.5" x2="433.5" y2="213.0" stroke="#000000" stroke-width="2.0" />
    <line x1="433.5" y1="192.0" x2="444.0" y2="202.5" stroke="#000000" stroke-width="2.0" />
    <line x1="423.0" y1="192.0" x2="423.0" y2="192.0" stroke="#000000" stroke-width="2.0" />
    <line x1="423.0" y1="213.0" x2="444.0" y2="192.0" stroke="#000000" stroke-width="2.0" />
    <line x1="423.0" y1="202.5" x2="433.5" y2="192.0" stroke="#000000" stroke-width="2.0" />
    <line x1="433.5" y1="213.0" x2="444.0" y2="202.5" stroke="#000000" stroke-width="2.0" />
    <line x1="444.0" y1="192.0" x2="465.0" y2="213.0" stroke="#000000" stroke-width="2.0" />
    <line x1="465.0" y1="192.0" x2="465.0" y2="192.0" stroke="#000000" stroke-width="2.0" />
    <line x1="444.0" y1="202.5" x2="454.5" y2="213.0" stroke="#000000" stroke-width="2.0" />
    <line x1="454.5" y1="192.0" x2="465.0" y2="202.5" stroke="#000000" stroke-width="2.0" />
    <line x1="444.0" y1="192.0" x2="444.0" y2="192.0" stroke="#000000" stroke-width="2.0" />
    <line x1="444.0" y1="213.0" x2="465.0" y2="192.0" stroke="#000000" stroke-width="2.0" />
    <line x1="444.0" y1="202.5" x2="454.5" y2="192.0" stroke="#000000" stroke-width="2.0" />
    <line x1="454.5" y1="213.0" x2="465.0" y2="202.5" stroke="#000000" stroke-width="2.0" />
</g>
<g>
    <line x1="216.5" y1="255.0" x2="216.5" y2="276.0" stroke="#000000" stroke-width="2.0" />
    <line x1="227.0" y1="255.0" x2="227.0" y2="276.0" stroke="#000000" stroke-width="2.0" />
    <line x1="237.5" y1="255.0" x2="237.5" y2="276.0" stroke="#000000" stroke-width="2.0" />
    <line x1="248.0" y1="255.0" x2="248.0" y2="276.0" stroke="#000000" stroke-width="2.0" />
</g>
<line x1="223.5" y1="297.0" x2="265.5" y2="297.0" stroke="#000000" stroke-width="2.0" />
<line x1="223.5" y1="318.0" x2="265.5" y2="318.0" stroke="#000000" stroke-width="2.0" />
<line x1="223.5" y1="339.0" x2="265.5" y2="339.0" stroke="#000000" stroke-width="2.0" />
<line x1="265.5" y1="381.0" x2="307.5" y2="381.0" stroke="#000000" stroke-width="2.0" />
<g>
    <line x1="363.5" y1="423.0" x2="363.5" y2="444.0" stroke="#000000" stroke-width="2.0" />
    <line x1="374.0" y1="423.0" x2="374.0" y2="444.0" stroke="#000000" stroke-width="2.0" />
    <line x1="360.0" y1="426.5" x2="381.0" y2="426.5" stroke="#000000" stroke-width="2.0" />
    <line x1="360.0" y1="437.0" x2="381.0" y2="437.0" stroke="#000000" stroke-width="2.0" />
    <line x1="363.5" y1="444.0" x2="363.5" y2="465.0" stroke="#000000" stroke-width="2.0" />
    <line x1="374.0" y1="444.0" x2="374.0" y2="465.0" stroke="#000000" stroke-width="2.0" />
    <line x1="360.0" y1="447.5" x2="381.0" y2="447.5" stroke="#000000" stroke-width="2.0" />
    <line x1="360.0" y1="458.0" x2="381.0" y2="458.0" stroke="#000000" stroke-width="2.0" />
</g>
<g>
    <line x1="466.75" y1="423.0" x2="466.75" y2="444.0" stroke="#000000" stroke-width="2.0" />
    <line x1="473.75" y1="423.0" x2="473.75" y2="444.0" stroke="#000000" stroke-width="2.0" />
    <line x1="480.75" y1="423.0" x2="480.75" y2="444.0" stroke="#000000" stroke-width="2.0" />
    <line x1="466.75" y1="444.0" x2="466.75" y2="465.0" stroke="#000000" stroke-width="2.0" />
    <line x1="473.75" y1="444.0" x2="473.75" y2="465.0" stroke="#000000" stroke-width="2.0" />
    <line x1="480.75" y1="444.0" x2="480.75" y2="465.0" stroke="#000000" stroke-width="2.0" />
</g>
<g>
    <line x1="496.5" y1="427.2" x2="501.75" y2="439.94699999999995" stroke="#000000" stroke-width="2.0" />
    <line x1="500.7" y1="439.94699999999995" x2="491.25" y2="439.94699999999995" stroke="#000000" stroke-width="2.0" />
    <line x1="491.25" y1="439.94699999999995" x2="496.5" y2="427.2" stroke="#000000" stroke-width="2.0" />
    <line x1="496.5" y1="448.2" x2="501.75" y2="460.94699999999995" stroke="#000000" stroke-width="2.0" />
    <line x1="500.7" y1="460.94699999999995" x2="491.25" y2="460.94699999999995" stroke="#000000" stroke-width="2.0" />
    <line x1="491.25" y1="460.94699999999995" x2="496.5" y2="448.2" stroke="#000000" stroke-width="2.0" />
</g>
<g>
    <text x="213.0" y="482.85" font-family="sans-serif" font-size="21.0" fill="#000000" >
  ?
    </text>
    <text x="213.0" y="503.85" font-family="sans-serif" font-size="21.0" fill="#000000" >
  ?
    </text>
</g>
<g>
    <line x1="384.5" y1="486.0" x2="384.5" y2="507.0" stroke="#000000" stroke-width="2.0" />
    <line x1="395.0" y1="486.0" x2="395.0" y2="507.0" stroke="#000000" stroke-width="2.0" />
    <line x1="381.0" y1="489.5" x2="402.0" y2="489.5" stroke="#000000" stroke-width="2.0" />
    <line x1="381.0" y1="500.0" x2="402.0" y2="500.0" stroke="#000000" stroke-width="2.0" />
    <line x1="384.5" y1="507.0" x2="384.5" y2="528.0" stroke="#000000" stroke-width="2.0" />
    <line x1="395.0" y1="507.0" x2="395.0" y2="528.0" stroke="#000000" stroke-width="2.0" />
    <line x1="381.0" y1="510.5" x2="402.0" y2="510.5" stroke="#000000" stroke-width="2.0" />
    <line x1="381.0" y1="521.0" x2="402.0" y2="521.0" stroke="#000000" stroke-width="2.0" />
</g>
<g>
    <text x="423.0" y="503.85" font-family="sans-serif" font-size="21.0" fill="#000000" >
  ?
    </text>
    <text x="423.0" y="524.85" font-family="sans-serif" font-size="21.0" fill="#000000" >
  ?
    </text>
</g>
<g>
    <text x="276.0" y="545.85" font-family="sans-serif" font-size="21.0" fill="#000000" >
  ?
    </text>
    <text x="276.0" y="566.85" font-family="sans-serif" font-size="21.0" fill="#000000" >
  ?
    </text>
</g>
<g>
    <line x1="426.5" y1="591.0" x2="426.5" y2="612.0" stroke="#000000" stroke-width="2.0" />
    <line x1="437.0" y1="591.0" x2="437.0" y2="612.0" stroke="#000000" stroke-width="2.0" />
    <line x1="423.0" y1="594.5" x2="444.0" y2="594.5" stroke="#000000" stroke-width="2.0" />
    <line x1="423.0" y1="605.0" x2="444.0" y2="605.0" stroke="#000000" stroke-width="2.0" />
    <line x1="426.5" y1="612.0" x2="426.5" y2="633.0" stroke="#000000" stroke-width="2.0" />
    <line x1="437.0" y1="612.0" x2="437.0" y2="633.0" stroke="#000000" stroke-width="2.0" />
    <line x1="423.0" y1="615.5" x2="444.0" y2="615.5" stroke="#000000" stroke-width="2.0" />
    <line x1="423.0" y1="626.0" x2="444.0" y2="626.0" stroke="#000000" stroke-width="2.0" />
</g>
<line x1="370.5" y1="633.0" x2="412.5" y2="633.0" stroke="#000000" stroke-width="2.0" />
<g>
    <line x1="382.75" y1="633.0" x2="382.75" y2="654.0" stroke="#000000" stroke-width="2.0" />
    <line x1="389.75" y1="633.0" x2="389.75" y2="654.0" stroke="#000000" stroke-width="2.0" />
    <line x1="396.75" y1="633.0" x2="396.75" y2="654.0" stroke="#000000" stroke-width="2.0" />
    <line x1="382.75" y1="654.0" x2="382.75" y2="675.0" stroke="#000000" stroke-width="2.0" />
    <line x1="389.75" y1="654.0" x2="389.75" y2="675.0" stroke="#000000" stroke-width="2.0" />
    <line x1="396.75" y1="654.0" x2="396.75" y2="675.0" stroke="#000000" stroke-width="2.0" />
</g>
<g>
    <line x1="412.5" y1="637.1999999999999" x2="417.75" y2="649.947" stroke="#000000" stroke-width="2.0" />
    <line x1="416.7" y1="649.947" x2="407.25" y2="649.947" stroke="#000000" stroke-width="2.0" />
    <line x1="407.25" y1="649.947" x2="412.5" y2="637.1999999999999" stroke="#000000" stroke-width="2.0" />
    <line x1="412.5" y1="658.1999999999999" x2="417.75" y2="670.947" stroke="#000000" stroke-width="2.0" />
    <line x1="416.7" y1="670.947" x2="407.25" y2="670.947" stroke="#000000" stroke-width="2.0" />
    <line x1="407.25" y1="670.947" x2="412.5" y2="658.1999999999999" stroke="#000000" stroke-width="2.0" />
</g>
<g>
    <line x1="279.5" y1="654.0" x2="279.5" y2="675.0" stroke="#000000" stroke-width="2.0" />
    <line x1="290.0" y1="654.0" x2="290.0" y2="675.0" stroke="#000000" stroke-width="2.0" />
    <line x1="300.5" y1="654.0" x2="300.5" y2="675.0" stroke="#000000" stroke-width="2.0" />
    <line x1="311.0" y1="654.0" x2="311.0" y2="675.0" stroke="#000000" stroke-width="2.0" />
</g>
<g>
    <line x1="321.5" y1="654.0" x2="321.5" y2="675.0" stroke="#000000" stroke-width="2.0" />
    <line x1="332.0" y1="654.0" x2="332.0" y2="675.0" stroke="#000000" stroke-width="2.0" />
    <line x1="318.0" y1="657.5" x2="339.0" y2="657.5" stroke="#000000" stroke-width="2.0" />
    <line x1="318.0" y1="668.0" x2="339.0" y2="668.0" stroke="#000000" stroke-width="2.0" />
    <line x1="321.5" y1="675.0" x2="321.5" y2="696.0" stroke="#000000" stroke-width="2.0" />
    <line x1="332.0" y1="675.0" x2="332.0" y2="696.0" stroke="#000000" stroke-width="2.0" />
    <line x1="318.0" y1="678.5" x2="339.0" y2="678.5" stroke="#000000" stroke-width="2.0" />
    <line x1="318.0" y1="689.0" x2="339.0" y2="689.0" stroke="#000000" stroke-width="2.0" />
</g>
<g>
    <line x1="402.0" y1="675.0" x2="423.0" y2="696.0" stroke="#000000" stroke-width="2.0" />
    <line x1="423.0" y1="675.0" x2="423.0" y2="675.0" stroke="#000000" stroke-width="2.0" />
    <line x1="402.0" y1="682.0" x2="416.0" y2="696.0" stroke="#000000" stroke-width="2.0" />
    <line x1="416.0" y1="675.0" x2="423.0" y2="682.0" stroke="#000000" stroke-width="2.0" />
    <line x1="402.0" y1="689.0" x2="409.0" y2="696.0" stroke="#000000" stroke-width="2.0" />
    <line x1="409.0" y1="675.0" x2="423.0" y2="689.0" stroke="#000000" stroke-width="2.0" />
    <line x1="402.0" y1="675.0" x2="402.0" y2="675.0" stroke="#000000" stroke-width="2.0" />
    <line x1="402.0" y1="696.0" x2="423.0" y2="675.0" stroke="#000000" stroke-width="2.0" />
    <line x1="402.0" y1="682.0" x2="409.0" y2="675.0" stroke="#000000" stroke-width="2.0" />
    <line x1="409.0" y1="696.0" x2="423.0" y2="682.0" stroke="#000000" stroke-width="2.0" />
    <line x1="402.0" y1="689.0" x2="416.0" y2="675.0" stroke="#000000" stroke-width="2.0" />
    <line x1="416.0" y1="696.0" x2="423.0" y2="689.0" stroke="#000000" stroke-width="2.0" />
    <line x1="402.0" y1="696.0" x2="423.0" y2="717.0" stroke="#000000" stroke-width="2.0" />
    <line x1="423.0" y1="696.0" x2="423.0" y2="696.0" stroke="#000000" stroke-width="2.0" />
    <line x1="402.0" y1="703.0" x2="416.0" y2="717.0" stroke="#000000" stroke-width="2.0" />
    <line x1="416.0" y1="696.0" x2="423.0" y2="703.0" stroke="#000000" stroke-width="2.0" />
    <line x1="402.0" y1="710.0" x2="409.0" y2="717.0" stroke="#000000" stroke-width="2.0" />
    <line x1="409.0" y1="696.0" x2="423.0" y2="710.0" stroke="#000000" stroke-width="2.0" />
    <line x1="402.0" y1="696.0" x2="402.0" y2="696.0" stroke="#000000" stroke-width="2.0" />
    <line x1="402.0" y1="717.0" x2="423.0" y2="696.0" stroke="#000000" stroke-width="2.0" />
    <line x1="402.0" y1="703.0" x2="409.0" y2="696.0" stroke="#000000" stroke-width="2.0" />
    <line x1="409.0" y1="717.0" x2="423.0" y2="703.0" stroke="#000000" stroke-width="2.0" />
    <line x1="402.0" y1="710.0" x2="416.0" y2="696.0" stroke="#000000" stroke-width="2.0" />
    <line x1="416.0" y1="717.0" x2="423.0" y2="710.0" stroke="#000000" stroke-width="2.0" />
</g>
<g>
    <line x1="255.0" y1="717.0" x2="255.0" y2="717.0" stroke="#000000" stroke-width="2.0" />
    <line x1="255.0" y1="738.0" x2="276.0" y2="717.0" stroke="#000000" stroke-width="2.0" />
    <line x1="255.0" y1="727.5" x2="265.5" y2="717.0" stroke="#000000" stroke-width="2.0" />
    <line x1="265.5" y1="738.0" x2="276.0" y2="727.5" stroke="#000000" stroke-width="2.0" />
    <line x1="255.0" y1="738.0" x2="255.0" y2="738.0" stroke="#000000" stroke-width="2.0" />
    <line x1="255.0" y1="759.0" x2="276.0" y2="738.0" stroke="#000000" stroke-width="2.0" />
    <line x1="255.0" y1="748.5" x2="265.5" y2="738.0" stroke="#000000" stroke-width="2.0" />
    <line x1="265.5" y1="759.0" x2="276.0" y2="748.5" stroke="#000000" stroke-width="2.0" />
</g>
<g>
    <line x1="171.0" y1="738.0" x2="192.0" y2="759.0" stroke="#000000" stroke-width="2.0" />
    <line x1="192.0" y1="738.0" x2="192.0" y2="738.0" stroke="#000000" stroke-width="2.0" />
    <line x1="171.0" y1="738.0" x2="171.0" y2="738.0" stroke="#000000" stroke-width="2.0" />
    <line x1="171.0" y1="759.0" x2="192.0" y2="738.0" stroke="#000000" stroke-width="2.0" />
    <line x1="171.0" y1="759.0" x2="192.0" y2="780.0" stroke="#000000" stroke-width="2.0" />
    <line x1="192.0" y1="759.0" x2="192.0" y2="759.0" stroke="#000000" stroke-width="2.0" />
    <line x1="171.0" y1="759.0" x2="171.0" y2="759.0" stroke="#000000" stroke-width="2.0" />
    <line x1="171.0" y1="780.0" x2="192.0" y2="759.0" stroke="#000000" stroke-width="2.0" />
</g>
<g>
    <line x1="216.5" y1="759.0" x2="216.5" y2="780.0" stroke="#000000" stroke-width="2.0" />
    <line x1="227.0" y1="759.0" x2="227.0" y2="780.0" stroke="#000000" stroke-width="2.0" />
    <line x1="237.5" y1="759.0" x2="237.5" y2="780.0" stroke="#000000" stroke-width="2.0" />
    <line x1="248.0" y1="759.0" x2="248.0" y2="780.0" stroke="#000000" stroke-width="2.0" />
</g>
<g>
    <line x1="171.0" y1="780.0" x2="192.0" y2="801.0" stroke="#000000" stroke-width="2.0" />
    <line x1="192.0" y1="780.0" x2="192.0" y2="780.0" stroke="#000000" stroke-width="2.0" />
    <line x1="171.0" y1="790.5" x2="181.5" y2="801.0" stroke="#000000" stroke-width="2.0" />
    <line x1="181.5" y1="780.0" x2="192.0" y2="790.5" stroke="#000000" stroke-width="2.0" />
    <line x1="171.0" y1="801.0" x2="192.0" y2="822.0" stroke="#000000" stroke-width="2.0" />
    <line x1="192.0" y1="801.0" x2="192.0" y2="801.0" stroke="#000000" stroke-width="2.0" />
    <line x1="171.0" y1="811.5" x2="181.5" y2="822.0" stroke="#000000" stroke-width="2.0" />
    <line x1="181.5" y1="801.0" x2="192.0" y2="811.5" stroke="#000000" stroke-width="2.0" />
    <line x1="192.0" y1="780.0" x2="213.0" y2="801.0" stroke="#000000" stroke-width="2.0" />
    <line x1="213.0" y1="780.0" x2="213.0" y2="780.0" stroke="#000000" stroke-width="2.0" />
    <line x1="192.0" y1="790.5" x2="202.5" y2="801.0" stroke="#000000" stroke-width="2.0" />
    <line x1="202.5" y1="780.0" x2="213.0" y2="790.5" stroke="#000000" stroke-width="2.0" />
</g>
<g>
    <line x1="213.0" y1="804.5" x2="234.0" y2="804.5" stroke="#000000" stroke-width="2.0" />
    <line x1="213.0" y1="815.0" x2="234.0" y2="815.0" stroke="#000000" stroke-width="2.0" />
    <line x1="213.0" y1="825.5" x2="234.0" y2="825.5" stroke="#000000" stroke-width="2.0" />
    <line x1="213.0" y1="836.0" x2="234.0" y2="836.0" stroke="#000000" stroke-width="2.0" />
</g>
<g>
    <line x1="172.75" y1="843.0" x2="172.75" y2="864.0" stroke="#000000" stroke-width="2.0" />
    <line x1="179.75" y1="843.0" x2="179.75" y2="864.0" stroke="#000000" stroke-width="2.0" />
    <line x1="186.75" y1="843.0" x2="186.75" y2="864.0" stroke="#000000" stroke-width="2.0" />
    <line x1="193.75" y1="843.0" x2="193.75" y2="864.0" stroke="#000000" stroke-width="2.0" />
    <line x1="200.75" y1="843.0" x2="200.75" y2="864.0" stroke="#000000" stroke-width="2.0" />
    <line x1="207.75" y1="843.0" x2="207.75" y2="864.0" stroke="#000000" stroke-width="2.0" />
</g>
<g>
    <line x1="172.75" y1="864.0" x2="172.75" y2="885.0" stroke="#000000" stroke-width="2.0" />
    <line x1="179.75" y1="864.0" x2="179.75" y2="885.0" stroke="#000000" stroke-width="2.0" />
    <line x1="186.75" y1="864.0" x2="186.75" y2="885.0" stroke="#000000" stroke-width="2.0" />
    <line x1="171.0" y1="865.75" x2="192.0" y2="865.75" stroke="#000000" stroke-width="2.0" />
    <line x1="171.0" y1="872.75" x2="192.0" y2="872.75" stroke="#000000" stroke-width="2.0" />
    <line x1="171.0" y1="879.75" x2="192.0" y2="879.75" stroke="#000000" stroke-width="2.0" />
    <line x1="172.75" y1="885.0" x2="172.75" y2="906.0" stroke="#000000" stroke-width="2.0" />
    <line x1="179.75" y1="885.0" x2="179.75" y2="906.0" stroke="#000000" stroke-width="2.0" />
    <line x1="186.75" y1="885.0" x2="186.75" y2="906.0" stroke="#000000" stroke-width="2.0" />
    <line x1="171.0" y1="886.75" x2="192.0" y2="886.75" stroke="#000000" stroke-width="2.0" />
    <line x1="171.0" y1="893.75" x2="192.0" y2="893.75" stroke="#000000" stroke-width="2.0" />
    <line x1="171.0" y1="900.75" x2="192.0" y2="900.75" stroke="#000000" stroke-width="2.0" />
</g>
<g>
    <line x1="192.0" y1="864.0" x2="192.0" y2="864.0" stroke="#000000" stroke-width="2.0" />
    <line x1="192.0" y1="885.0" x2="213.0" y2="864.0" stroke="#000000" stroke-width="2.0" />
    <line x1="192.0" y1="874.5" x2="202.5" y2="864.0" stroke="#000000" stroke-width="2.0" />
    <line x1="202.5" y1="885.0" x2="213.0" y2="874.5" stroke="#000000" stroke-width="2.0" />
    <line x1="192.0" y1="885.0" x2="192.0" y2="885.0" stroke="#000000" stroke-width="2.0" />
    <line x1="192.0" y1="906.0" x2="213.0" y2="885.0" stroke="#000000" stroke-width="2.0" />
    <line x1="192.0" y1="895.5" x2="202.5" y2="885.0" stroke="#000000" stroke-width="2.0" />
    <line x1="202.5" y1="906.0" x2="213.0" y2="895.5" stroke="#000000" stroke-width="2.0" />
</g>
<g>
    <line x1="466.75" y1="969.0" x2="466.75" y2="990.0" stroke="#000000" stroke-width="2.0" />
    <line x1="473.75" y1="969.0" x2="473.75" y2="990.0" stroke="#000000" stroke-width="2.0" />
    <line x1="480.75" y1="969.0" x2="480.75" y2="990.0" stroke="#000000" stroke-width="2.0" />
    <line x1="466.75" y1="990.0" x2="466.75" y2="1011.0" stroke="#000000" stroke-width="2.0" />
    <line x1="473.75" y1="990.0" x2="473.75" y2="1011.0" stroke="#000000" stroke-width="2.0" />
    <line x1="480.75" y1="990.0" x2="480.75" y2="1011.0" stroke="#000000" stroke-width="2.0" />
</g>
<g>
    <line x1="496.5" y1="973.2" x2="501.75" y2="985.947" stroke="#000000" stroke-width="2.0" />
    <line x1="500.7" y1="985.947" x2="491.25" y2="985.947" stroke="#000000" stroke-width="2.0" />
    <line x1="491.25" y1="985.947" x2="496.5" y2="973.2" stroke="#000000" stroke-width="2.0" />
    <line x1="496.5" y1="994.2" x2="501.75" y2="1006.947" stroke="#000000" stroke-width="2.0" />
    <line x1="500.7" y1="1006.947" x2="491.25" y2="1006.947" stroke="#000000" stroke-width="2.0" />
    <line x1="491.25" y1="1006.947" x2="496.5" y2="994.2" stroke="#000000" stroke-width="2.0" />
</g>
<g>
    <line x1="269.84700000000004" y1="1032.0" x2="276.0" y2="1038.153" stroke="#000000" stroke-width="2.0" />
    <line x1="255.0" y1="1046.847" x2="261.15299999999996" y2="1053.0" stroke="#000000" stroke-width="2.0" />
    <line x1="269.84700000000004" y1="1053.0" x2="276.0" y2="1059.153" stroke="#000000" stroke-width="2.0" />
    <line x1="255.0" y1="1067.847" x2="261.15299999999996" y2="1074.0" stroke="#000000" stroke-width="2.0" />
</g>
<g>
    <line x1="213.0" y1="1137.0" x2="234.0" y2="1158.0" stroke="#000000" stroke-width="2.0" />
    <line x1="234.0" y1="1137.0" x2="234.0" y2="1137.0" stroke="#000000" stroke-width="2.0" />
    <line x1="213.0" y1="1144.0" x2="227.0" y2="1158.0" stroke="#000000" stroke-width="2.0" />
    <line x1="227.0" y1="1137.0" x2="234.0" y2="1144.0" stroke="#000000" stroke-width="2.0" />
    <line x1="213.0" y1="1151.0" x2="220.0" y2="1158.0" stroke="#000000" stroke-width="2.0" />
    <line x1="220.0" y1="1137.0" x2="234.0" y2="1151.0" stroke="#000000" stroke-width="2.0" />
    <line x1="234.0" y1="1137.0" x2="255.0" y2="1158.0" stroke="#000000" stroke-width="2.0" />
    <line x1="255.0" y1="1137.0" x2="255.0" y2="1137.0" stroke="#000000" stroke-width="2.0" />
    <line x1="234.0" y1="1144.0" x2="248.0" y2="1158.0" stroke="#000000" stroke-width="2.0" />
    <line x1="248.0" y1="1137.0" x2="255.0" y2="1144.0" stroke="#000000" stroke-width="2.0" />
    <line x1="234.0" y1="1151.0" x2="241.0" y2="1158.0" stroke="#000000" stroke-width="2.0" />
    <line x1="241.0" y1="1137.0" x2="255.0" y2="1151.0" stroke="#000000" stroke-width="2.0" />
</g>
<g>
    <line x1="286.5" y1="1200.0" x2="286.5" y2="1221.0" stroke="#000000" stroke-width="2.0" />
    <line x1="276.0" y1="1210.5" x2="297.0" y2="1210.5" stroke="#000000" stroke-width="2.0" />
    <line x1="307.5" y1="1200.0" x2="307.5" y2="1221.0" stroke="#000000" stroke-width="2.0" />
    <line x1="297.0" y1="1210.5" x2="318.0" y2="1210.5" stroke="#000000" stroke-width="2.0" />
</g>
<g>
    <line x1="244.5" y1="1242.0" x2="244.5" y2="1263.0" stroke="#000000" stroke-width="2.0" />
    <line x1="234.0" y1="1252.5" x2="255.0" y2="1252.5" stroke="#000000" stroke-width="2.0" />
    <line x1="244.5" y1="1263.0" x2="244.5" y2="1284.0" stroke="#000000" stroke-width="2.0" />
    <line x1="234.0" y1="1273.5" x2="255.0" y2="1273.5" stroke="#000000" stroke-width="2.0" />
</g>
<g>
    <line x1="258.5" y1="1242.0" x2="258.5" y2="1263.0" stroke="#000000" stroke-width="2.0" />
    <line x1="269.0" y1="1242.0" x2="269.0" y2="1263.0" stroke="#000000" stroke-width="2.0" />
    <line x1="255.0" y1="1245.5" x2="276.0" y2="1245.5" stroke="#000000" stroke-width="2.0" />
    <line x1="255.0" y1="1256.0" x2="276.0" y2="1256.0" stroke="#000000" stroke-width="2.0" />
    <line x1="258.5" y1="1263.0" x2="258.5" y2="1284.0" stroke="#000000" stroke-width="2.0" />
    <line x1="269.0" y1="1263.0" x2="269.0" y2="1284.0" stroke="#000000" stroke-width="2.0" />
    <line x1="255.0" y1="1266.5" x2="276.0" y2="1266.5" stroke="#000000" stroke-width="2.0" />
    <line x1="255.0" y1="1277.0" x2="276.0" y2="1277.0" stroke="#000000" stroke-width="2.0" />
    <line x1="258.5" y1="1284.0" x2="258.5" y2="1305.0" stroke="#000000" stroke-width="2.0" />
    <line x1="269.0" y1="1284.0" x2="269.0" y2="1305.0" stroke="#000000" stroke-width="2.0" />
    <line x1="255.0" y1="1287.5" x2="276.0" y2="1287.5" stroke="#000000" stroke-width="2.0" />
    <line x1="255.0" y1="1298.0" x2="276.0" y2="1298.0" stroke="#000000" stroke-width="2.0" />
</g>
<g>
    <line x1="276.0" y1="1242.0" x2="297.0" y2="1263.0" stroke="#000000" stroke-width="2.0" />
    <line x1="297.0" y1="1242.0" x2="297.0" y2="1242.0" stroke="#000000" stroke-width="2.0" />
    <line x1="276.0" y1="1249.0" x2="290.0" y2="1263.0" stroke="#000000" stroke-width="2.0" />
    <line x1="290.0" y1="1242.0" x2="297.0" y2="1249.0" stroke="#000000" stroke-width="2.0" />
    <line x1="276.0" y1="1256.0" x2="283.0" y2="1263.0" stroke="#000000" stroke-width="2.0" />
    <line x1="283.0" y1="1242.0" x2="297.0" y2="1256.0" stroke="#000000" stroke-width="2.0" />
    <line x1="297.0" y1="1242.0" x2="318.0" y2="1263.0" stroke="#000000" stroke-width="2.0" />
    <line x1="318.0" y1="1242.0" x2="318.0" y2="1242.0" stroke="#000000" stroke-width="2.0" />
    <line x1="297.0" y1="1249.0" x2="311.0" y2="1263.0" stroke="#000000" stroke-width="2.0" />
    <line x1="311.0" y1="1242.0" x2="318.0" y2="1249.0" stroke="#000000" stroke-width="2.0" />
    <line x1="297.0" y1="1256.0" x2="304.0" y2="1263.0" stroke="#000000" stroke-width="2.0" />
    <line x1="304.0" y1="1242.0" x2="318.0" y2="1256.0" stroke="#000000" stroke-width="2.0" />
</g>
<g>
    <line x1="318.0" y1="1242.0" x2="318.0" y2="1242.0" stroke="#000000" stroke-width="2.0" />
    <line x1="318.0" y1="1263.0" x2="339.0" y2="1242.0" stroke="#000000" stroke-width="2.0" />
    <line x1="318.0" y1="1252.5" x2="328.5" y2="1242.0" stroke="#000000" stroke-width="2.0" />
    <line x1="328.5" y1="1263.0" x2="339.0" y2="1252.5" stroke="#000000" stroke-width="2.0" />
    <line x1="318.0" y1="1263.0" x2="318.0" y2="1263.0" stroke="#000000" stroke-width="2.0" />
    <line x1="318.0" y1="1284.0" x2="339.0" y2="1263.0" stroke="#000000" stroke-width="2.0" />
    <line x1="318.0" y1="1273.5" x2="328.5" y2="1263.0" stroke="#000000" stroke-width="2.0" />
    <line x1="328.5" y1="1284.0" x2="339.0" y2="1273.5" stroke="#000000" stroke-width="2.0" />
</g>
<g>
    <text x="276.0" y="1280.8500000000001" font-family="sans-serif" font-size="21.0" fill="#000000" >
  ?
    </text>
    <text x="297.0" y="1280.8500000000001" font-family="sans-serif" font-size="21.0" fill="#000000" >
  ?
    </text>
</g>
<g>
    <text x="339.0" y="1280.8500000000001" font-family="sans-serif" font-size="21.0" fill="#000000" >
  ?
    </text>
    <text x="339.0" y="1301.8500000000001" font-family="sans-serif" font-size="21.0" fill="#000000" >
  ?
    </text>
</g>
<g>
    <line x1="382.75" y1="1263.0" x2="382.75" y2="1284.0" stroke="#000000" stroke-width="2.0" />
    <line x1="389.75" y1="1263.0" x2="389.75" y2="1284.0" stroke="#000000" stroke-width="2.0" />
    <line x1="396.75" y1="1263.0" x2="396.75" y2="1284.0" stroke="#000000" stroke-width="2.0" />
    <line x1="382.75" y1="1284.0" x2="382.75" y2="1305.0" stroke="#000000" stroke-width="2.0" />
    <line x1="389.75" y1="1284.0" x2="389.75" y2="1305.0" stroke="#000000" stroke-width="2.0" />
    <line x1="396.75" y1="1284.0" x2="396.75" y2="1305.0" stroke="#000000" stroke-width="2.0" />
</g>
<g>
    <line x1="412.5" y1="1267.2" x2="417.75" y2="1279.9470000000001" stroke="#000000" stroke-width="2.0" />
    <line x1="416.7" y1="1279.9470000000001" x2="407.25" y2="1279.9470000000001" stroke="#000000" stroke-width="2.0" />
    <line x1="407.25" y1="1279.9470000000001" x2="412.5" y2="1267.2" stroke="#000000" stroke-width="2.0" />
    <line x1="412.5" y1="1288.2" x2="417.75" y2="1300.9470000000001" stroke="#000000" stroke-width="2.0" />
    <line x1="416.7" y1="1300.9470000000001" x2="407.25" y2="1300.9470000000001" stroke="#000000" stroke-width="2.0" />
    <line x1="407.25" y1="1300.9470000000001" x2="412.5" y2="1288.2" stroke="#000000" stroke-width="2.0" />
</g>
<line x1="349.5" y1="1326.0" x2="391.5" y2="1326.0" stroke="#000000" stroke-width="2.0" />
<g>
    <line x1="423.0" y1="1305.0" x2="444.0" y2="1326.0" stroke="#000000" stroke-width="2.0" />
    <line x1="444.0" y1="1305.0" x2="444.0" y2="1305.0" stroke="#000000" stroke-width="2.0" />
    <line x1="423.0" y1="1315.5" x2="433.5" y2="1326.0" stroke="#000000" stroke-width="2.0" />
    <line x1="433.5" y1="1305.0" x2="444.0" y2="1315.5" stroke="#000000" stroke-width="2.0" />
    <line x1="423.0" y1="1305.0" x2="423.0" y2="1305.0" stroke="#000000" stroke-width="2.0" />
    <line x1="423.0" y1="1326.0" x2="444.0" y2="1305.0" stroke="#000000" stroke-width="2.0" />
    <line x1="423.0" y1="1315.5" x2="433.5" y2="1305.0" stroke="#000000" stroke-width="2.0" />
    <line x1="433.5" y1="1326.0" x2="444.0" y2="1315.5" stroke="#000000" stroke-width="2.0" />
    <line x1="444.0" y1="1305.0" x2="465.0" y2="1326.0" stroke="#000000" stroke-width="2.0" />
    <line x1="465.0" y1="1305.0" x2="465.0" y2="1305.0" stroke="#000000" stroke-width="2.0" />
    <line x1="444.0" y1="1315.5" x2="454.5" y2="1326.0" stroke="#000000" stroke-width="2.0" />
    <line x1="454.5" y1="1305.0" x2="465.0" y2="1315.5" stroke="#000000" stroke-width="2.0" />
    <line x1="444.0" y1="1305.0" x2="444.0" y2="1305.0" stroke="#000000" stroke-width="2.0" />
    <line x1="444.0" y1="1326.0" x2="465.0" y2="1305.0" stroke="#000000" stroke-width="2.0" />
    <line x1="444.0" y1="1315.5" x2="454.5" y2="1305.0" stroke="#000000" stroke-width="2.0" />
    <line x1="454.5" y1="1326.0" x2="465.0" y2="1315.5" stroke="#000000" stroke-width="2.0" />
</g>
<text x="3.0" y="20.849999999999998" font-family="sans-serif" font-size="21.0" fill="#000000" >
  torchrl
</text>
<text x="3.0" y="41.85" font-family="sans-serif" font-size="21.0" fill="#000000" >
  │
</text>
<text x="3.0" y="62.85" font-family="sans-serif" font-size="21.0" fill="#000000" >
  ├── co
</text>
<text x="171.0" y="62.85" font-family="sans-serif" font-size="21.0" fill="#000000" >
  ectors
</text>
<text x="3.0" y="83.85000000000001" font-family="sans-serif" font-size="21.0" fill="#000000" >
  │
</text>
<text x="87.0" y="83.85000000000001" font-family="sans-serif" font-size="21.0" fill="#000000" >
  └── co
</text>
<text x="255.0" y="83.85000000000001" font-family="sans-serif" font-size="21.0" fill="#000000" >
  ectors.py
</text>
<text x="3.0" y="104.85" font-family="sans-serif" font-size="21.0" fill="#000000" >
  ├── data
</text>
<text x="3.0" y="125.85" font-family="sans-serif" font-size="21.0" fill="#000000" >
  │
</text>
<text x="87.0" y="125.85" font-family="sans-serif" font-size="21.0" fill="#000000" >
  ├── tenso
</text>
<text x="318.0" y="125.85" font-family="sans-serif" font-size="21.0" fill="#000000" >
  specs.py
</text>
<text x="3.0" y="146.85" font-family="sans-serif" font-size="21.0" fill="#000000" >
  │
</text>
<text x="87.0" y="146.85" font-family="sans-serif" font-size="21.0" fill="#000000" >
  ├── postp
</text>
<text x="297.0" y="146.85" font-family="sans-serif" font-size="21.0" fill="#000000" >
  ocs
</text>
<text x="3.0" y="167.85" font-family="sans-serif" font-size="21.0" fill="#000000" >
  │
</text>
<text x="87.0" y="167.85" font-family="sans-serif" font-size="21.0" fill="#000000" >
  │
</text>
<text x="150.0" y="167.85" font-family="sans-serif" font-size="21.0" fill="#000000" >
  └── postprocs.py
</text>
<text x="3.0" y="188.85" font-family="sans-serif" font-size="21.0" fill="#000000" >
  │
</text>
<text x="87.0" y="188.85" font-family="sans-serif" font-size="21.0" fill="#000000" >
  └── replay
</text>
<text x="318.0" y="188.85" font-family="sans-serif" font-size="21.0" fill="#000000" >
  bu
</text>
<text x="402.0" y="188.85" font-family="sans-serif" font-size="21.0" fill="#000000" >
  ers
</text>
<text x="3.0" y="209.85" font-family="sans-serif" font-size="21.0" fill="#000000" >
  │
</text>
<text x="150.0" y="209.85" font-family="sans-serif" font-size="21.0" fill="#000000" >
  ├── repl
</text>
<text x="339.0" y="209.85" font-family="sans-serif" font-size="21.0" fill="#000000" >
  y
</text>
<text x="381.0" y="209.85" font-family="sans-serif" font-size="21.0" fill="#000000" >
  bu
</text>
<text x="465.0" y="209.85" font-family="sans-serif" font-size="21.0" fill="#000000" >
  ers.py
</text>
<text x="3.0" y="230.85" font-family="sans-serif" font-size="21.0" fill="#000000" >
  │
</text>
<text x="150.0" y="230.85" font-family="sans-serif" font-size="21.0" fill="#000000" >
  └── stor
</text>
<text x="339.0" y="230.85" font-family="sans-serif" font-size="21.0" fill="#000000" >
  ges.py
</text>
<text x="3.0" y="251.85" font-family="sans-serif" font-size="21.0" fill="#000000" >
  ├── envs
</text>
<text x="3.0" y="272.84999999999997" font-family="sans-serif" font-size="21.0" fill="#000000" >
  │
</text>
<text x="87.0" y="272.84999999999997" font-family="sans-serif" font-size="21.0" fill="#000000" >
  ├── co
</text>
<text x="255.0" y="272.84999999999997" font-family="sans-serif" font-size="21.0" fill="#000000" >
  on.py
</text>
<text x="3.0" y="293.84999999999997" font-family="sans-serif" font-size="21.0" fill="#000000" >
  │
</text>
<text x="87.0" y="293.84999999999997" font-family="sans-serif" font-size="21.0" fill="#000000" >
  ├── env
</text>
<text x="255.0" y="293.84999999999997" font-family="sans-serif" font-size="21.0" fill="#000000" >
  creator.py
</text>
<text x="3.0" y="314.84999999999997" font-family="sans-serif" font-size="21.0" fill="#000000" >
  │
</text>
<text x="87.0" y="314.84999999999997" font-family="sans-serif" font-size="21.0" fill="#000000" >
  ├── gym
</text>
<text x="255.0" y="314.84999999999997" font-family="sans-serif" font-size="21.0" fill="#000000" >
  like.py
</text>
<text x="3.0" y="335.84999999999997" font-family="sans-serif" font-size="21.0" fill="#000000" >
  │
</text>
<text x="87.0" y="335.84999999999997" font-family="sans-serif" font-size="21.0" fill="#000000" >
  ├── vec
</text>
<text x="255.0" y="335.84999999999997" font-family="sans-serif" font-size="21.0" fill="#000000" >
  env.py
</text>
<text x="3.0" y="356.85" font-family="sans-serif" font-size="21.0" fill="#000000" >
  │
</text>
<text x="87.0" y="356.85" font-family="sans-serif" font-size="21.0" fill="#000000" >
  ├── libs
</text>
<text x="3.0" y="377.85" font-family="sans-serif" font-size="21.0" fill="#000000" >
  │
</text>
<text x="87.0" y="377.85" font-family="sans-serif" font-size="21.0" fill="#000000" >
  │
</text>
<text x="150.0" y="377.85" font-family="sans-serif" font-size="21.0" fill="#000000" >
  ├── dm
</text>
<text x="297.0" y="377.85" font-family="sans-serif" font-size="21.0" fill="#000000" >
  control.py
</text>
<text x="3.0" y="398.85" font-family="sans-serif" font-size="21.0" fill="#000000" >
  │
</text>
<text x="87.0" y="398.85" font-family="sans-serif" font-size="21.0" fill="#000000" >
  │
</text>
<text x="150.0" y="398.85" font-family="sans-serif" font-size="21.0" fill="#000000" >
  └── gym.py
</text>
<text x="3.0" y="419.85" font-family="sans-serif" font-size="21.0" fill="#000000" >
  │
</text>
<text x="87.0" y="419.85" font-family="sans-serif" font-size="21.0" fill="#000000" >
  └── transforms
</text>
<text x="3.0" y="440.85" font-family="sans-serif" font-size="21.0" fill="#000000" >
  │
</text>
<text x="150.0" y="440.85" font-family="sans-serif" font-size="21.0" fill="#000000" >
  ├── functi
</text>
<text x="381.0" y="440.85" font-family="sans-serif" font-size="21.0" fill="#000000" >
  nal.
</text>
<text x="3.0" y="461.85" font-family="sans-serif" font-size="21.0" fill="#000000" >
  │
</text>
<text x="150.0" y="461.85" font-family="sans-serif" font-size="21.0" fill="#000000" >
  └── transf
</text>
<text x="381.0" y="461.85" font-family="sans-serif" font-size="21.0" fill="#000000" >
  rms.
</text>
<text x="3.0" y="482.85" font-family="sans-serif" font-size="21.0" fill="#000000" >
  ├── module
</text>
<text x="3.0" y="503.85" font-family="sans-serif" font-size="21.0" fill="#000000" >
  │
</text>
<text x="87.0" y="503.85" font-family="sans-serif" font-size="21.0" fill="#000000" >
  ├── di
</text>
<text x="234.0" y="503.85" font-family="sans-serif" font-size="21.0" fill="#000000" >
  tributi
</text>
<text x="402.0" y="503.85" font-family="sans-serif" font-size="21.0" fill="#000000" >
  n
</text>
<text x="3.0" y="524.85" font-family="sans-serif" font-size="21.0" fill="#000000" >
  │
</text>
<text x="87.0" y="524.85" font-family="sans-serif" font-size="21.0" fill="#000000" >
  │
</text>
<text x="150.0" y="524.85" font-family="sans-serif" font-size="21.0" fill="#000000" >
  ├── continu
</text>
<text x="402.0" y="524.85" font-family="sans-serif" font-size="21.0" fill="#000000" >
  u
</text>
<text x="444.0" y="524.85" font-family="sans-serif" font-size="21.0" fill="#000000" >
  .py
</text>
<text x="3.0" y="545.85" font-family="sans-serif" font-size="21.0" fill="#000000" >
  │
</text>
<text x="87.0" y="545.85" font-family="sans-serif" font-size="21.0" fill="#000000" >
  │
</text>
<text x="150.0" y="545.85" font-family="sans-serif" font-size="21.0" fill="#000000" >
  └── di
</text>
<text x="297.0" y="545.85" font-family="sans-serif" font-size="21.0" fill="#000000" >
  crete.py
</text>
<text x="3.0" y="566.85" font-family="sans-serif" font-size="21.0" fill="#000000" >
  │
</text>
<text x="87.0" y="566.85" font-family="sans-serif" font-size="21.0" fill="#000000" >
  ├── model
</text>
<text x="3.0" y="587.85" font-family="sans-serif" font-size="21.0" fill="#000000" >
  │
</text>
<text x="87.0" y="587.85" font-family="sans-serif" font-size="21.0" fill="#000000" >
  │
</text>
<text x="150.0" y="587.85" font-family="sans-serif" font-size="21.0" fill="#000000" >
  ├── models.py
</text>
<text x="3.0" y="608.85" font-family="sans-serif" font-size="21.0" fill="#000000" >
  │
</text>
<text x="87.0" y="608.85" font-family="sans-serif" font-size="21.0" fill="#000000" >
  │
</text>
<text x="150.0" y="608.85" font-family="sans-serif" font-size="21.0" fill="#000000" >
  └── explorati
</text>
<text x="444.0" y="608.85" font-family="sans-serif" font-size="21.0" fill="#000000" >
  n.py
</text>
<text x="3.0" y="629.85" font-family="sans-serif" font-size="21.0" fill="#000000" >
  │
</text>
<text x="87.0" y="629.85" font-family="sans-serif" font-size="21.0" fill="#000000" >
  └── tensordict
</text>
<text x="402.0" y="629.85" font-family="sans-serif" font-size="21.0" fill="#000000" >
  m
</text>
<text x="444.0" y="629.85" font-family="sans-serif" font-size="21.0" fill="#000000" >
  dule
</text>
<text x="3.0" y="650.85" font-family="sans-serif" font-size="21.0" fill="#000000" >
  │
</text>
<text x="150.0" y="650.85" font-family="sans-serif" font-size="21.0" fill="#000000" >
  ├── actors.
</text>
<text x="3.0" y="671.85" font-family="sans-serif" font-size="21.0" fill="#000000" >
  │
</text>
<text x="150.0" y="671.85" font-family="sans-serif" font-size="21.0" fill="#000000" >
  ├── co
</text>
<text x="339.0" y="671.85" font-family="sans-serif" font-size="21.0" fill="#000000" >
  n.
</text>
<text x="3.0" y="692.85" font-family="sans-serif" font-size="21.0" fill="#000000" >
  │
</text>
<text x="150.0" y="692.85" font-family="sans-serif" font-size="21.0" fill="#000000" >
  ├── expl
</text>
<text x="339.0" y="692.85" font-family="sans-serif" font-size="21.0" fill="#000000" >
  rat
</text>
<text x="423.0" y="692.85" font-family="sans-serif" font-size="21.0" fill="#000000" >
  on.py
</text>
<text x="3.0" y="713.85" font-family="sans-serif" font-size="21.0" fill="#000000" >
  │
</text>
<text x="150.0" y="713.85" font-family="sans-serif" font-size="21.0" fill="#000000" >
  ├── probabil
</text>
<text x="423.0" y="713.85" font-family="sans-serif" font-size="21.0" fill="#000000" >
  stic.py
</text>
<text x="3.0" y="734.85" font-family="sans-serif" font-size="21.0" fill="#000000" >
  │
</text>
<text x="150.0" y="734.85" font-family="sans-serif" font-size="21.0" fill="#000000" >
  └── s
</text>
<text x="276.0" y="734.85" font-family="sans-serif" font-size="21.0" fill="#000000" >
  quence.py
</text>
<text x="3.0" y="755.85" font-family="sans-serif" font-size="21.0" fill="#000000" >
  ├── obje
</text>
<text x="192.0" y="755.85" font-family="sans-serif" font-size="21.0" fill="#000000" >
  tiv
</text>
<text x="276.0" y="755.85" font-family="sans-serif" font-size="21.0" fill="#000000" >
  s
</text>
<text x="3.0" y="776.85" font-family="sans-serif" font-size="21.0" fill="#000000" >
  │
</text>
<text x="87.0" y="776.85" font-family="sans-serif" font-size="21.0" fill="#000000" >
  ├──
</text>
<text x="192.0" y="776.85" font-family="sans-serif" font-size="21.0" fill="#000000" >
  o
</text>
<text x="255.0" y="776.85" font-family="sans-serif" font-size="21.0" fill="#000000" >
  on.py
</text>
<text x="3.0" y="797.85" font-family="sans-serif" font-size="21.0" fill="#000000" >
  │
</text>
<text x="87.0" y="797.85" font-family="sans-serif" font-size="21.0" fill="#000000" >
  ├──
</text>
<text x="213.0" y="797.85" font-family="sans-serif" font-size="21.0" fill="#000000" >
  pg.py
</text>
<text x="3.0" y="818.85" font-family="sans-serif" font-size="21.0" fill="#000000" >
  │
</text>
<text x="87.0" y="818.85" font-family="sans-serif" font-size="21.0" fill="#000000" >
  ├──
</text>
<text x="192.0" y="818.85" font-family="sans-serif" font-size="21.0" fill="#000000" >
  q
</text>
<text x="234.0" y="818.85" font-family="sans-serif" font-size="21.0" fill="#000000" >
  .py
</text>
<text x="3.0" y="839.85" font-family="sans-serif" font-size="21.0" fill="#000000" >
  │
</text>
<text x="87.0" y="839.85" font-family="sans-serif" font-size="21.0" fill="#000000" >
  ├── fu
</text>
<text x="234.0" y="839.85" font-family="sans-serif" font-size="21.0" fill="#000000" >
  ctional.py
</text>
<text x="3.0" y="860.85" font-family="sans-serif" font-size="21.0" fill="#000000" >
  │
</text>
<text x="87.0" y="860.85" font-family="sans-serif" font-size="21.0" fill="#000000" >
  ├──
</text>
<text x="213.0" y="860.85" font-family="sans-serif" font-size="21.0" fill="#000000" >
  o.py
</text>
<text x="3.0" y="881.85" font-family="sans-serif" font-size="21.0" fill="#000000" >
  │
</text>
<text x="87.0" y="881.85" font-family="sans-serif" font-size="21.0" fill="#000000" >
  ├──
</text>
<text x="213.0" y="881.85" font-family="sans-serif" font-size="21.0" fill="#000000" >
  dq.py
</text>
<text x="3.0" y="902.85" font-family="sans-serif" font-size="21.0" fill="#000000" >
  │
</text>
<text x="87.0" y="902.85" font-family="sans-serif" font-size="21.0" fill="#000000" >
  ├──
</text>
<text x="213.0" y="902.85" font-family="sans-serif" font-size="21.0" fill="#000000" >
  inforce.py
</text>
<text x="3.0" y="923.85" font-family="sans-serif" font-size="21.0" fill="#000000" >
  │
</text>
<text x="87.0" y="923.85" font-family="sans-serif" font-size="21.0" fill="#000000" >
  ├── sac.py
</text>
<text x="3.0" y="944.85" font-family="sans-serif" font-size="21.0" fill="#000000" >
  │
</text>
<text x="87.0" y="944.85" font-family="sans-serif" font-size="21.0" fill="#000000" >
  ├── utils.py
</text>
<text x="3.0" y="965.85" font-family="sans-serif" font-size="21.0" fill="#000000" >
  │
</text>
<text x="87.0" y="965.85" font-family="sans-serif" font-size="21.0" fill="#000000" >
  └── value
</text>
<text x="3.0" y="986.85" font-family="sans-serif" font-size="21.0" fill="#000000" >
  │
</text>
<text x="150.0" y="986.85" font-family="sans-serif" font-size="21.0" fill="#000000" >
  ├── advantages.
</text>
<text x="3.0" y="1007.85" font-family="sans-serif" font-size="21.0" fill="#000000" >
  │
</text>
<text x="150.0" y="1007.85" font-family="sans-serif" font-size="21.0" fill="#000000" >
  ├── functional.
</text>
<text x="3.0" y="1028.8500000000001" font-family="sans-serif" font-size="21.0" fill="#000000" >
  │
</text>
<text x="150.0" y="1028.8500000000001" font-family="sans-serif" font-size="21.0" fill="#000000" >
  ├── pg.py
</text>
<text x="3.0" y="1049.8500000000001" font-family="sans-serif" font-size="21.0" fill="#000000" >
  │
</text>
<text x="150.0" y="1049.8500000000001" font-family="sans-serif" font-size="21.0" fill="#000000" >
  ├── u
</text>
<text x="276.0" y="1049.8500000000001" font-family="sans-serif" font-size="21.0" fill="#000000" >
  ils.py
</text>
<text x="3.0" y="1070.8500000000001" font-family="sans-serif" font-size="21.0" fill="#000000" >
  │
</text>
<text x="150.0" y="1070.8500000000001" font-family="sans-serif" font-size="21.0" fill="#000000" >
  └── v
</text>
<text x="276.0" y="1070.8500000000001" font-family="sans-serif" font-size="21.0" fill="#000000" >
  race.py
</text>
<text x="3.0" y="1091.8500000000001" font-family="sans-serif" font-size="21.0" fill="#000000" >
  ├── record
</text>
<text x="3.0" y="1112.8500000000001" font-family="sans-serif" font-size="21.0" fill="#000000" >
  │
</text>
<text x="150.0" y="1112.8500000000001" font-family="sans-serif" font-size="21.0" fill="#000000" >
  └── recorder.py
</text>
<text x="3.0" y="1133.8500000000001" font-family="sans-serif" font-size="21.0" fill="#000000" >
  └── trainers
</text>
<text x="87.0" y="1154.8500000000001" font-family="sans-serif" font-size="21.0" fill="#000000" >
  ├── lo
</text>
<text x="255.0" y="1154.8500000000001" font-family="sans-serif" font-size="21.0" fill="#000000" >
  ers
</text>
<text x="87.0" y="1175.8500000000001" font-family="sans-serif" font-size="21.0" fill="#000000" >
  ├── trainers.py
</text>
<text x="87.0" y="1196.8500000000001" font-family="sans-serif" font-size="21.0" fill="#000000" >
  └── helpers
</text>
<text x="150.0" y="1217.8500000000001" font-family="sans-serif" font-size="21.0" fill="#000000" >
  ├── co
</text>
<text x="318.0" y="1217.8500000000001" font-family="sans-serif" font-size="21.0" fill="#000000" >
  ectors.py
</text>
<text x="150.0" y="1238.8500000000001" font-family="sans-serif" font-size="21.0" fill="#000000" >
  ├── envs.py
</text>
<text x="150.0" y="1259.8500000000001" font-family="sans-serif" font-size="21.0" fill="#000000" >
  ├──
</text>
<text x="339.0" y="1259.8500000000001" font-family="sans-serif" font-size="21.0" fill="#000000" >
  rs.py
</text>
<text x="150.0" y="1280.8500000000001" font-family="sans-serif" font-size="21.0" fill="#000000" >
  ├──
</text>
<text x="360.0" y="1280.8500000000001" font-family="sans-serif" font-size="21.0" fill="#000000" >
  .
</text>
<text x="150.0" y="1301.8500000000001" font-family="sans-serif" font-size="21.0" fill="#000000" >
  ├── m
</text>
<text x="276.0" y="1301.8500000000001" font-family="sans-serif" font-size="21.0" fill="#000000" >
  del
</text>
<text x="360.0" y="1301.8500000000001" font-family="sans-serif" font-size="21.0" fill="#000000" >
  .
</text>
<text x="150.0" y="1322.8500000000001" font-family="sans-serif" font-size="21.0" fill="#000000" >
  ├── replay
</text>
<text x="381.0" y="1322.8500000000001" font-family="sans-serif" font-size="21.0" fill="#000000" >
  bu
</text>
<text x="465.0" y="1322.8500000000001" font-family="sans-serif" font-size="21.0" fill="#000000" >
  er.py
</text>
<text x="150.0" y="1343.8500000000001" font-family="sans-serif" font-size="21.0" fill="#000000" >
  └── trainers.py
</text>
</svg>
