<?xml version="1.0" standalone="no"?>
<!DOCTYPE svg PUBLIC "-//W3C//DTD SVG 1.1//EN" "http://www.w3.org/Graphics/SVG/1.1/DTD/svg11.dtd">

<svg width="741.0" height="510.0" viewBox="0 0 741.0 510.0" version="1.1" xmlns="http://www.w3.org/2000/svg" xmlns:xlink="http://www.w3.org/1999/xlink">
<!-- automatically generated by aafigure --><line x1="202.5" y1="118.5" x2="538.5" y2="118.5" stroke="#000000" stroke-width="2.0" />
<line x1="202.5" y1="118.5" x2="202.5" y2="160.5" stroke="#000000" stroke-width="2.0" />
<line x1="538.5" y1="118.5" x2="538.5" y2="160.5" stroke="#000000" stroke-width="2.0" />
<line x1="202.5" y1="160.5" x2="538.5" y2="160.5" stroke="#000000" stroke-width="2.0" />
<g>
    <line x1="391.5" y1="213.0" x2="386.25" y2="197.25" stroke="#000000" stroke-width="2.0" />
    <line x1="391.5" y1="213.0" x2="396.75" y2="197.25" stroke="#000000" stroke-width="2.0" />
    <line x1="391.5" y1="171.0" x2="391.5" y2="213.0" stroke="#000000" stroke-width="2.0" />
</g>
<g>
    <line x1="363.5" y1="213.0" x2="363.5" y2="234.0" stroke="#000000" stroke-width="2.0" />
    <line x1="374.0" y1="213.0" x2="374.0" y2="234.0" stroke="#000000" stroke-width="2.0" />
    <line x1="384.5" y1="213.0" x2="384.5" y2="234.0" stroke="#000000" stroke-width="2.0" />
    <line x1="395.0" y1="213.0" x2="395.0" y2="234.0" stroke="#000000" stroke-width="2.0" />
</g>
<g>
    <line x1="391.5" y1="276.0" x2="386.25" y2="260.25" stroke="#000000" stroke-width="2.0" />
    <line x1="391.5" y1="276.0" x2="396.75" y2="260.25" stroke="#000000" stroke-width="2.0" />
    <line x1="391.5" y1="234.0" x2="391.5" y2="276.0" stroke="#000000" stroke-width="2.0" />
</g>
<line x1="181.5" y1="286.5" x2="580.5" y2="286.5" stroke="#000000" stroke-width="2.0" />
<line x1="181.5" y1="286.5" x2="181.5" y2="328.5" stroke="#000000" stroke-width="2.0" />
<g>
    <line x1="318.0" y1="297.0" x2="339.0" y2="318.0" stroke="#000000" stroke-width="2.0" />
    <line x1="339.0" y1="297.0" x2="339.0" y2="297.0" stroke="#000000" stroke-width="2.0" />
    <line x1="318.0" y1="307.5" x2="328.5" y2="318.0" stroke="#000000" stroke-width="2.0" />
    <line x1="328.5" y1="297.0" x2="339.0" y2="307.5" stroke="#000000" stroke-width="2.0" />
    <line x1="339.0" y1="297.0" x2="360.0" y2="318.0" stroke="#000000" stroke-width="2.0" />
    <line x1="360.0" y1="297.0" x2="360.0" y2="297.0" stroke="#000000" stroke-width="2.0" />
    <line x1="339.0" y1="307.5" x2="349.5" y2="318.0" stroke="#000000" stroke-width="2.0" />
    <line x1="349.5" y1="297.0" x2="360.0" y2="307.5" stroke="#000000" stroke-width="2.0" />
</g>
<line x1="580.5" y1="286.5" x2="580.5" y2="328.5" stroke="#000000" stroke-width="2.0" />
<line x1="181.5" y1="328.5" x2="580.5" y2="328.5" stroke="#000000" stroke-width="2.0" />
<g>
    <line x1="202.5" y1="381.0" x2="197.25" y2="365.25" stroke="#000000" stroke-width="2.0" />
    <line x1="202.5" y1="381.0" x2="207.75" y2="365.25" stroke="#000000" stroke-width="2.0" />
    <line x1="202.5" y1="339.0" x2="202.5" y2="381.0" stroke="#000000" stroke-width="2.0" />
</g>
<g>
    <line x1="559.5" y1="381.0" x2="554.25" y2="365.25" stroke="#000000" stroke-width="2.0" />
    <line x1="559.5" y1="381.0" x2="564.75" y2="365.25" stroke="#000000" stroke-width="2.0" />
    <line x1="559.5" y1="339.0" x2="559.5" y2="381.0" stroke="#000000" stroke-width="2.0" />
</g>
<g>
    <line x1="423.0" y1="391.5" x2="407.25" y2="396.75" stroke="#000000" stroke-width="2.0" />
    <line x1="423.0" y1="391.5" x2="407.25" y2="386.25" stroke="#000000" stroke-width="2.0" />
    <line x1="276.0" y1="391.5" x2="423.0" y2="391.5" stroke="#000000" stroke-width="2.0" />
</g>
<g>
    <line x1="181.5" y1="444.0" x2="176.25" y2="428.25" stroke="#000000" stroke-width="2.0" />
    <line x1="181.5" y1="444.0" x2="186.75" y2="428.25" stroke="#000000" stroke-width="2.0" />
    <line x1="181.5" y1="402.0" x2="181.5" y2="444.0" stroke="#000000" stroke-width="2.0" />
</g>
<g>
    <line x1="559.5" y1="444.0" x2="554.25" y2="428.25" stroke="#000000" stroke-width="2.0" />
    <line x1="559.5" y1="444.0" x2="564.75" y2="428.25" stroke="#000000" stroke-width="2.0" />
    <line x1="559.5" y1="402.0" x2="559.5" y2="444.0" stroke="#000000" stroke-width="2.0" />
</g>
<line x1="13.5" y1="454.5" x2="307.5" y2="454.5" stroke="#000000" stroke-width="2.0" />
<line x1="370.5" y1="454.5" x2="727.5" y2="454.5" stroke="#000000" stroke-width="2.0" />
<line x1="13.5" y1="454.5" x2="13.5" y2="496.5" stroke="#000000" stroke-width="2.0" />
<line x1="307.5" y1="454.5" x2="307.5" y2="496.5" stroke="#000000" stroke-width="2.0" />
<line x1="370.5" y1="454.5" x2="370.5" y2="496.5" stroke="#000000" stroke-width="2.0" />
<line x1="727.5" y1="454.5" x2="727.5" y2="496.5" stroke="#000000" stroke-width="2.0" />
<line x1="13.5" y1="496.5" x2="307.5" y2="496.5" stroke="#000000" stroke-width="2.0" />
<line x1="370.5" y1="496.5" x2="727.5" y2="496.5" stroke="#000000" stroke-width="2.0" />
<text x="24.0" y="20.849999999999998" font-family="sans-serif" font-size="21.0" fill="#000000" >
  :aspect: 60
</text>
<text x="24.0" y="41.85" font-family="sans-serif" font-size="21.0" fill="#000000" >
  :scale: 120
</text>
<text x="24.0" y="62.85" font-family="sans-serif" font-size="21.0" fill="#000000" >
  :proportional:
</text>
<text x="24.0" y="83.85000000000001" font-family="sans-serif" font-size="21.0" fill="#000000" >
  :textual:
</text>
<text x="213.0" y="146.85" font-family="sans-serif" font-size="21.0" fill="#000000" >
  Observation (s)
</text>
<text x="318.0" y="230.85" font-family="sans-serif" font-size="21.0" fill="#000000" >
  co
</text>
<text x="402.0" y="230.85" font-family="sans-serif" font-size="21.0" fill="#000000" >
  on
</text>
<text x="276.0" y="314.84999999999997" font-family="sans-serif" font-size="21.0" fill="#000000" >
  Hi
</text>
<text x="360.0" y="314.84999999999997" font-family="sans-serif" font-size="21.0" fill="#000000" >
  en state
</text>
<text x="129.0" y="398.85" font-family="sans-serif" font-size="21.0" fill="#000000" >
  actor
</text>
<text x="486.0" y="398.85" font-family="sans-serif" font-size="21.0" fill="#000000" >
  critic
</text>
<text x="24.0" y="482.85" font-family="sans-serif" font-size="21.0" fill="#000000" >
  Action (a(s))
</text>
<text x="381.0" y="482.85" font-family="sans-serif" font-size="21.0" fill="#000000" >
  Quality (Q(s,a))
</text>
</svg>
